# xmcd CD database file
#
# Track frame offsets:
#	150
#	9622
#	17646
#	33543
#	46983
#	59397
#	78306
#	97166
#	107928
#	117637
#	131653
#	150666
#	160387
#	174845
#	193219
#	203780
#	221080
#
# Disc length: 3109 seconds
#
# Revision: 1
# Processed by: cddbd v1.5.2PL0 Copyright (c) Steve Scherf et al.
# Submitted via: CDex 1.86
#
DISCID=f20c2311
DTITLE=Della Reese With Duke Ellington Orchestra - Live Guard Session 13 February 1962
DYEAR=1962
DGENRE=Jazz
TTITLE0=Introduction
TTITLE1=Comes Once In A Lifetime (vocals Della Reese)
TTITLE2=Sophisticated Lady
TTITLE3=Chopin's Etude In E (vocals Della Reese)
TTITLE4=Take The 'A' Train
TTITLE5=Bye, Bye Blackbird (vocals Della Reese)
TTITLE6=Satin Doll
TTITLE7=Don't You Know (vocals Della Reese)
TTITLE8=Things Ain't What They Used To Be
TTITLE9=A Foggy Day In London Town (vocals Della Reese)
TTITLE10=Mood Indigo
TTITLE11=That Reminds Me (vocals Della Reese)
TTITLE12=Taffy Twist
TTITLE13=Bill Bailey Won't You Please Come Home
TTITLE14=Do Nothing 'Til You Hear From Me
TTITLE15=You're Nobody 'Til Somebody Loves You (vocals Della Reese)
TTITLE16=Jam With Sam
EXTD=YEAR: 1962
EXTT0=
EXTT1=
EXTT2=
EXTT3=
EXTT4=
EXTT5=
EXTT6=
EXTT7=
EXTT8=
EXTT9=
EXTT10=
EXTT11=
EXTT12=
EXTT13=
EXTT14=
EXTT15=
EXTT16=
PLAYORDER=
